REM DIRINDEX 1\2,1\3,1\4,1\5,1\6
REM DIRNAME folder01,folder02,folder03,folder04,folder05,folder06
TITLE ""
FILE "CD1-49.mp3" MP3
  TRACK 01 AUDIO
    TITLE "6:cjc091_0927"
    INDEX 01 00:00:00
  TRACK 02 AUDIO
    TITLE "0:"
    INDEX 01 00:01:71
  TRACK 03 AUDIO
    TITLE "2:cjc091_0928"
    INDEX 01 00:03:14
  TRACK 04 AUDIO
    TITLE "0:"
    INDEX 01 00:04:48
  TRACK 05 AUDIO
    TITLE "3:cjc091_0929"
    INDEX 01 00:04:64
  TRACK 06 AUDIO
    TITLE "0:"
    INDEX 01 00:06:67
  TRACK 07 AUDIO
    TITLE "4:cjc091_0930"
    INDEX 01 00:07:17
  TRACK 08 AUDIO
    TITLE "0:"
    INDEX 01 00:15:23
  TRACK 09 AUDIO
    TITLE "2:cjc091_0931"
    INDEX 01 00:16:38
  TRACK 10 AUDIO
    TITLE "0:"
    INDEX 01 00:17:53
  TRACK 11 AUDIO
    TITLE "3:cjc091_0932"
    INDEX 01 00:17:72
  TRACK 12 AUDIO
    TITLE "0:"
    INDEX 01 00:19:50
  TRACK 13 AUDIO
    TITLE "4:cjc091_0933"
    INDEX 01 00:19:67
  TRACK 14 AUDIO
    TITLE "0:"
    INDEX 01 00:22:38
  TRACK 15 AUDIO
    TITLE "2:cjc091_0934"
    INDEX 01 00:23:55
  TRACK 16 AUDIO
    TITLE "0:"
    INDEX 01 00:25:48
  TRACK 17 AUDIO
    TITLE "3:cjc091_0935"
    INDEX 01 00:25:64
  TRACK 18 AUDIO
    TITLE "0:"
    INDEX 01 00:27:08
  TRACK 19 AUDIO
    TITLE "4:cjc091_0936"
    INDEX 01 00:27:28
  TRACK 20 AUDIO
    TITLE "0:"
    INDEX 01 00:29:58
  TRACK 21 AUDIO
    TITLE "2:cjc091_0937"
    INDEX 01 00:30:73
  TRACK 22 AUDIO
    TITLE "0:"
    INDEX 01 00:32:54
  TRACK 23 AUDIO
    TITLE "3:cjc091_0938"
    INDEX 01 00:32:56
  TRACK 24 AUDIO
    TITLE "0:"
    INDEX 01 00:34:38
  TRACK 25 AUDIO
    TITLE "4:cjc091_0939"
    INDEX 01 00:34:59
  TRACK 26 AUDIO
    TITLE "0:"
    INDEX 01 00:38:26
  TRACK 27 AUDIO
    TITLE "2:cjc091_0940"
    INDEX 01 00:39:35
  TRACK 28 AUDIO
    TITLE "0:"
    INDEX 01 00:40:50
  TRACK 29 AUDIO
    TITLE "3:cjc091_0941"
    INDEX 01 00:40:68
  TRACK 30 AUDIO
    TITLE "0:"
    INDEX 01 00:42:53
  TRACK 31 AUDIO
    TITLE "4:cjc091_0942"
    INDEX 01 00:42:70
  TRACK 32 AUDIO
    TITLE "0:"
    INDEX 01 00:45:47
  TRACK 33 AUDIO
    TITLE "2:cjc091_0943"
    INDEX 01 00:46:60
  TRACK 34 AUDIO
    TITLE "0:"
    INDEX 01 00:49:33
  TRACK 35 AUDIO
    TITLE "3:cjc091_0944"
    INDEX 01 00:49:51
  TRACK 36 AUDIO
    TITLE "0:"
    INDEX 01 00:52:45
  TRACK 37 AUDIO
    TITLE "4:cjc091_0945"
    INDEX 01 00:52:67
  TRACK 38 AUDIO
    TITLE "0:"
    INDEX 01 00:57:23
  TRACK 39 AUDIO
    TITLE "2:cjc091_0946"
    INDEX 01 00:58:38
  TRACK 40 AUDIO
    TITLE "0:"
    INDEX 01 00:59:71
  TRACK 41 AUDIO
    TITLE "3:cjc091_0947"
    INDEX 01 01:00:00
  TRACK 42 AUDIO
    TITLE "0:"
    INDEX 01 01:01:68
  TRACK 43 AUDIO
    TITLE "4:cjc091_0948"
    INDEX 01 01:02:18
  TRACK 44 AUDIO
    TITLE "0:"
    INDEX 01 01:06:38
  TRACK 45 AUDIO
    TITLE "2:cjc091_0949"
    INDEX 01 01:07:45
  TRACK 46 AUDIO
    TITLE "0:"
    INDEX 01 01:08:58
  TRACK 47 AUDIO
    TITLE "3:cjc091_0950"
    INDEX 01 01:08:62
  TRACK 48 AUDIO
    TITLE "0:"
    INDEX 01 01:10:26
  TRACK 49 AUDIO
    TITLE "4:cjc091_0951"
    INDEX 01 01:10:37
  TRACK 50 AUDIO
    TITLE "0:"
    INDEX 01 01:12:26
  TRACK 51 AUDIO
    TITLE "2:cjc091_0952"
    INDEX 01 01:13:42
  TRACK 52 AUDIO
    TITLE "0:"
    INDEX 01 01:15:09
  TRACK 53 AUDIO
    TITLE "3:cjc091_0953"
    INDEX 01 01:15:19
  TRACK 54 AUDIO
    TITLE "0:"
    INDEX 01 01:16:56
  TRACK 55 AUDIO
    TITLE "4:cjc091_0954"
    INDEX 01 01:17:04
  TRACK 56 AUDIO
    TITLE "0:"
    INDEX 01 01:20:57
  TRACK 57 AUDIO
    TITLE "2:cjc091_0955"
    INDEX 01 01:21:72
  TRACK 58 AUDIO
    TITLE "0:"
    INDEX 01 01:23:50
  TRACK 59 AUDIO
    TITLE "3:cjc091_0956"
    INDEX 01 01:23:65
  TRACK 60 AUDIO
    TITLE "0:"
    INDEX 01 01:26:05
  TRACK 61 AUDIO
    TITLE "4:cjc091_0957"
    INDEX 01 01:26:25
  TRACK 62 AUDIO
    TITLE "0:"
    INDEX 01 01:30:56
  TRACK 63 AUDIO
    TITLE "2:cjc091_0958"
    INDEX 01 01:31:67
  TRACK 64 AUDIO
    TITLE "0:"
    INDEX 01 01:33:29
  TRACK 65 AUDIO
    TITLE "3:cjc091_0959"
    INDEX 01 01:33:36
  TRACK 66 AUDIO
    TITLE "0:"
    INDEX 01 01:35:14
  TRACK 67 AUDIO
    TITLE "4:cjc091_0960"
    INDEX 01 01:35:37
  TRACK 68 AUDIO
    TITLE "0:"
    INDEX 01 01:39:15
  TRACK 69 AUDIO
    TITLE "2:cjc091_0961"
    INDEX 01 01:40:31
  TRACK 70 AUDIO
    TITLE "0:"
    INDEX 01 01:41:71
  TRACK 71 AUDIO
    TITLE "3:cjc091_0962"
    INDEX 01 01:42:12
  TRACK 72 AUDIO
    TITLE "0:"
    INDEX 01 01:44:01
  TRACK 73 AUDIO
    TITLE "4:cjc091_0963"
    INDEX 01 01:44:19
  TRACK 74 AUDIO
    TITLE "0:"
    INDEX 01 01:47:62
  TRACK 75 AUDIO
    TITLE "2:cjc091_0964"
    INDEX 01 01:49:00
  TRACK 76 AUDIO
    TITLE "0:"
    INDEX 01 01:50:41
  TRACK 77 AUDIO
    TITLE "3:cjc091_0965"
    INDEX 01 01:50:56
  TRACK 78 AUDIO
    TITLE "0:"
    INDEX 01 01:52:38
  TRACK 79 AUDIO
    TITLE "4:cjc091_0966"
    INDEX 01 01:52:59
  TRACK 80 AUDIO
    TITLE "0:"
    INDEX 01 01:56:26
  TRACK 81 AUDIO
    TITLE "2:cjc091_0967"
    INDEX 01 01:57:41
  TRACK 82 AUDIO
    TITLE "0:"
    INDEX 01 01:58:52
  TRACK 83 AUDIO
    TITLE "3:cjc091_0968"
    INDEX 01 01:58:56
  TRACK 84 AUDIO
    TITLE "0:"
    INDEX 01 02:00:10
  TRACK 85 AUDIO
    TITLE "4:cjc091_0969"
    INDEX 01 02:00:20
  TRACK 86 AUDIO
    TITLE "0:"
    INDEX 01 02:03:39
  TRACK 87 AUDIO
    TITLE "2:cjc091_0970"
    INDEX 01 02:04:47
  TRACK 88 AUDIO
    TITLE "0:"
    INDEX 01 02:05:68
  TRACK 89 AUDIO
    TITLE "3:cjc091_0971"
    INDEX 01 02:06:08
  TRACK 90 AUDIO
    TITLE "0:"
    INDEX 01 02:08:00
  TRACK 91 AUDIO
    TITLE "4:cjc091_0972"
    INDEX 01 02:08:17
  TRACK 92 AUDIO
    TITLE "0:"
    INDEX 01 02:12:46
